<svg width="47" height="22" viewBox="0 0 47 22" fill="none" xmlns="http://www.w3.org/2000/svg">
<path d="M45.47 6.55037C44.9253 5.23445 44.1355 4.06958 43.1223 3.08847C42.1087 2.10701 40.906 1.34202 39.5475 0.814751C38.1549 0.274252 36.6388 0.000348035 35.0408 0.000348035H28.3891V11.3602L23.3569 0H21.8836L14.8363 16.3378L13.9845 18.3122L13.3761 19.7228L10.0042 12.5745C13.3389 12.5408 16.0627 9.99975 16.3159 6.77869C16.6035 3.11735 13.6304 0 9.89368 0H0.00566648C0.00247909 0 0 0.00243625 0 0.00556857V21.8632C0 21.8664 0.00283324 21.8688 0.00566648 21.8688H1.78246C1.78565 21.8688 1.78813 21.8664 1.78813 21.8632V12.5804C1.78813 12.5773 1.79061 12.5749 1.7938 12.5749H8.06624L12.45 21.8688H14.3879L14.3808 21.8538L17.1149 15.758H28.3137L30.9064 21.6367L31.0088 21.8688H35.0401C36.6328 21.8688 38.1461 21.5935 39.5379 21.0502C40.8957 20.5202 42.0988 19.7517 43.1134 18.7661C44.1288 17.7797 44.9204 16.6103 45.4665 15.2899C46.0267 13.9357 46.3104 12.4625 46.3104 10.9116C46.3104 9.36076 46.0274 7.89832 45.4696 6.55003M1.78813 10.9878V1.64621C1.78813 1.64308 1.79061 1.64064 1.7938 1.64064H9.70669C12.5435 1.64064 14.7704 4.06331 14.4428 6.83228C14.1687 9.14985 12.1705 10.9937 9.746 10.9937H1.7938C1.79061 10.9937 1.78813 10.991 1.78813 10.9882M17.8399 14.0606L22.6433 2.90122L27.5735 14.0606H17.8395H17.8399ZM44.41 11.2805C44.3693 12.4614 44.1331 13.5838 43.7056 14.6213C43.6769 14.6906 43.6475 14.7595 43.6174 14.8277C43.1648 15.8534 42.533 16.7652 41.7372 17.5413C40.8876 18.3697 39.8793 19.0156 38.7396 19.4621C37.5631 19.9229 36.2804 20.1565 34.9264 20.1565H32.2852L31.9221 19.3368L30.1167 15.2607V1.71303H34.9268C34.9693 1.71303 35.0118 1.71303 35.0539 1.71373C35.1386 1.71477 35.2229 1.71651 35.3072 1.71895C35.3493 1.72034 35.3911 1.72208 35.4332 1.72382C36.5644 1.77254 37.6403 1.98659 38.6398 2.36142C38.6766 2.37534 38.7134 2.38926 38.7506 2.40353C39.7483 2.79159 40.6446 3.33244 41.4213 4.01354C41.5321 4.11099 41.6409 4.21088 41.7468 4.31425C41.9851 4.54569 42.2082 4.78932 42.4165 5.04477C42.4859 5.12969 42.5535 5.21635 42.6198 5.30406C42.6856 5.39176 42.7501 5.48086 42.8128 5.571C43.1676 6.08192 43.4673 6.63286 43.7091 7.21999C43.9507 7.80539 44.1306 8.41828 44.2485 9.05379C44.2556 9.09173 44.2623 9.12967 44.2691 9.16795C44.2832 9.25043 44.2967 9.33361 44.3087 9.4168C44.324 9.51981 44.3374 9.62353 44.3495 9.72759C44.3572 9.79511 44.3643 9.86263 44.3707 9.93049C44.3714 9.9378 44.3721 9.94511 44.3728 9.95242C44.3796 10.0255 44.3856 10.0993 44.3909 10.1731C44.3969 10.2563 44.4015 10.3398 44.4054 10.4237C44.4128 10.5855 44.4167 10.7484 44.4167 10.9123C44.4167 11.0355 44.4146 11.1584 44.4104 11.2809" fill="#191919"/>
</svg>
